<mxfile host="app.diagrams.net" modified="2021-06-13T19:26:22.667Z" agent="5.0 (Macintosh; Intel Mac OS X 10_15_7) AppleWebKit/537.36 (KHTML, like Gecko) Chrome/91.0.4472.77 Safari/537.36" etag="CmWmjgfsUu7BuS7PXVw2" version="14.7.7" type="github">
  <diagram id="C5RBs43oDa-KdzZeNtuy" name="Page-1">
    <mxGraphModel dx="946" dy="614" grid="1" gridSize="10" guides="1" tooltips="1" connect="1" arrows="1" fold="1" page="1" pageScale="1" pageWidth="827" pageHeight="1169" math="0" shadow="0">
      <root>
        <mxCell id="WIyWlLk6GJQsqaUBKTNV-0" />
        <mxCell id="WIyWlLk6GJQsqaUBKTNV-1" parent="WIyWlLk6GJQsqaUBKTNV-0" />
        <mxCell id="byIc-fCQGl1gXg94sGnV-67" style="edgeStyle=orthogonalEdgeStyle;rounded=0;orthogonalLoop=1;jettySize=auto;html=1;exitX=0.5;exitY=1;exitDx=0;exitDy=0;" edge="1" parent="WIyWlLk6GJQsqaUBKTNV-1" source="WIyWlLk6GJQsqaUBKTNV-3" target="byIc-fCQGl1gXg94sGnV-2">
          <mxGeometry relative="1" as="geometry" />
        </mxCell>
        <mxCell id="WIyWlLk6GJQsqaUBKTNV-3" value="Customer selects reservation type" style="rounded=1;whiteSpace=wrap;html=1;fontSize=12;glass=0;strokeWidth=1;shadow=0;" parent="WIyWlLk6GJQsqaUBKTNV-1" vertex="1">
          <mxGeometry x="160" y="80" width="120" height="40" as="geometry" />
        </mxCell>
        <mxCell id="WIyWlLk6GJQsqaUBKTNV-5" value="No" style="edgeStyle=orthogonalEdgeStyle;rounded=0;html=1;jettySize=auto;orthogonalLoop=1;fontSize=11;endArrow=block;endFill=0;endSize=8;strokeWidth=1;shadow=0;labelBackgroundColor=none;entryX=1;entryY=0.5;entryDx=0;entryDy=0;" parent="WIyWlLk6GJQsqaUBKTNV-1" source="WIyWlLk6GJQsqaUBKTNV-6" target="byIc-fCQGl1gXg94sGnV-5" edge="1">
          <mxGeometry y="10" relative="1" as="geometry">
            <mxPoint as="offset" />
            <mxPoint x="390" y="610" as="targetPoint" />
            <Array as="points">
              <mxPoint x="760" y="190" />
              <mxPoint x="760" y="925" />
            </Array>
          </mxGeometry>
        </mxCell>
        <mxCell id="byIc-fCQGl1gXg94sGnV-17" style="edgeStyle=orthogonalEdgeStyle;rounded=0;orthogonalLoop=1;jettySize=auto;html=1;exitX=0.5;exitY=1;exitDx=0;exitDy=0;entryX=0.25;entryY=0;entryDx=0;entryDy=0;startArrow=none;" edge="1" parent="WIyWlLk6GJQsqaUBKTNV-1" source="WIyWlLk6GJQsqaUBKTNV-6" target="WIyWlLk6GJQsqaUBKTNV-12">
          <mxGeometry relative="1" as="geometry">
            <mxPoint x="300" y="255" as="sourcePoint" />
            <Array as="points">
              <mxPoint x="410" y="250" />
              <mxPoint x="190" y="250" />
            </Array>
          </mxGeometry>
        </mxCell>
        <mxCell id="WIyWlLk6GJQsqaUBKTNV-6" value="Systems checks&lt;br&gt;&amp;nbsp;availability" style="rhombus;whiteSpace=wrap;html=1;shadow=0;fontFamily=Helvetica;fontSize=12;align=center;strokeWidth=1;spacing=6;spacingTop=-4;" parent="WIyWlLk6GJQsqaUBKTNV-1" vertex="1">
          <mxGeometry x="350" y="145" width="120" height="90" as="geometry" />
        </mxCell>
        <mxCell id="byIc-fCQGl1gXg94sGnV-7" value="" style="edgeStyle=orthogonalEdgeStyle;rounded=0;orthogonalLoop=1;jettySize=auto;html=1;" edge="1" parent="WIyWlLk6GJQsqaUBKTNV-1" source="WIyWlLk6GJQsqaUBKTNV-12" target="byIc-fCQGl1gXg94sGnV-6">
          <mxGeometry relative="1" as="geometry" />
        </mxCell>
        <mxCell id="WIyWlLk6GJQsqaUBKTNV-12" value="Customer selects hotel" style="rounded=1;whiteSpace=wrap;html=1;fontSize=12;glass=0;strokeWidth=1;shadow=0;" parent="WIyWlLk6GJQsqaUBKTNV-1" vertex="1">
          <mxGeometry x="160" y="310" width="120" height="50" as="geometry" />
        </mxCell>
        <mxCell id="byIc-fCQGl1gXg94sGnV-1" value="" style="edgeStyle=orthogonalEdgeStyle;rounded=0;orthogonalLoop=1;jettySize=auto;html=1;" edge="1" parent="WIyWlLk6GJQsqaUBKTNV-1" source="byIc-fCQGl1gXg94sGnV-0" target="WIyWlLk6GJQsqaUBKTNV-3">
          <mxGeometry relative="1" as="geometry" />
        </mxCell>
        <mxCell id="byIc-fCQGl1gXg94sGnV-0" value="Start" style="ellipse;whiteSpace=wrap;html=1;" vertex="1" parent="WIyWlLk6GJQsqaUBKTNV-1">
          <mxGeometry x="160" width="120" height="50" as="geometry" />
        </mxCell>
        <mxCell id="byIc-fCQGl1gXg94sGnV-16" style="edgeStyle=orthogonalEdgeStyle;rounded=0;orthogonalLoop=1;jettySize=auto;html=1;exitX=1;exitY=0.5;exitDx=0;exitDy=0;entryX=0;entryY=0.5;entryDx=0;entryDy=0;" edge="1" parent="WIyWlLk6GJQsqaUBKTNV-1" source="byIc-fCQGl1gXg94sGnV-2" target="WIyWlLk6GJQsqaUBKTNV-6">
          <mxGeometry relative="1" as="geometry" />
        </mxCell>
        <mxCell id="byIc-fCQGl1gXg94sGnV-2" value="Customer inputs reservation detail" style="shape=parallelogram;perimeter=parallelogramPerimeter;whiteSpace=wrap;html=1;fixedSize=1;" vertex="1" parent="WIyWlLk6GJQsqaUBKTNV-1">
          <mxGeometry x="160" y="160" width="120" height="60" as="geometry" />
        </mxCell>
        <mxCell id="byIc-fCQGl1gXg94sGnV-5" value="END" style="ellipse;whiteSpace=wrap;html=1;" vertex="1" parent="WIyWlLk6GJQsqaUBKTNV-1">
          <mxGeometry x="160" y="900" width="120" height="50" as="geometry" />
        </mxCell>
        <mxCell id="byIc-fCQGl1gXg94sGnV-13" style="edgeStyle=orthogonalEdgeStyle;rounded=0;orthogonalLoop=1;jettySize=auto;html=1;exitX=0.5;exitY=1;exitDx=0;exitDy=0;" edge="1" parent="WIyWlLk6GJQsqaUBKTNV-1" source="byIc-fCQGl1gXg94sGnV-6" target="byIc-fCQGl1gXg94sGnV-12">
          <mxGeometry relative="1" as="geometry">
            <Array as="points">
              <mxPoint x="410" y="405" />
            </Array>
          </mxGeometry>
        </mxCell>
        <mxCell id="byIc-fCQGl1gXg94sGnV-23" style="edgeStyle=orthogonalEdgeStyle;rounded=0;orthogonalLoop=1;jettySize=auto;html=1;exitX=0.5;exitY=0;exitDx=0;exitDy=0;entryX=0.7;entryY=-0.02;entryDx=0;entryDy=0;entryPerimeter=0;" edge="1" parent="WIyWlLk6GJQsqaUBKTNV-1" source="byIc-fCQGl1gXg94sGnV-6" target="WIyWlLk6GJQsqaUBKTNV-12">
          <mxGeometry relative="1" as="geometry">
            <Array as="points">
              <mxPoint x="410" y="280" />
              <mxPoint x="244" y="280" />
            </Array>
          </mxGeometry>
        </mxCell>
        <mxCell id="byIc-fCQGl1gXg94sGnV-6" value="Systems checks&lt;br&gt;&amp;nbsp;rooms availability" style="rhombus;whiteSpace=wrap;html=1;shadow=0;fontFamily=Helvetica;fontSize=12;align=center;strokeWidth=1;spacing=6;spacingTop=-4;" vertex="1" parent="WIyWlLk6GJQsqaUBKTNV-1">
          <mxGeometry x="350" y="300" width="120" height="70" as="geometry" />
        </mxCell>
        <mxCell id="byIc-fCQGl1gXg94sGnV-10" value="Yes" style="text;html=1;align=center;verticalAlign=middle;resizable=0;points=[];autosize=1;strokeColor=none;" vertex="1" parent="WIyWlLk6GJQsqaUBKTNV-1">
          <mxGeometry x="220" y="610" width="40" height="20" as="geometry" />
        </mxCell>
        <mxCell id="byIc-fCQGl1gXg94sGnV-26" style="edgeStyle=orthogonalEdgeStyle;rounded=0;orthogonalLoop=1;jettySize=auto;html=1;exitX=0.5;exitY=1;exitDx=0;exitDy=0;" edge="1" parent="WIyWlLk6GJQsqaUBKTNV-1" source="byIc-fCQGl1gXg94sGnV-12" target="byIc-fCQGl1gXg94sGnV-14">
          <mxGeometry relative="1" as="geometry" />
        </mxCell>
        <mxCell id="byIc-fCQGl1gXg94sGnV-12" value="Customer selects room" style="rounded=1;whiteSpace=wrap;html=1;fontSize=12;glass=0;strokeWidth=1;shadow=0;" vertex="1" parent="WIyWlLk6GJQsqaUBKTNV-1">
          <mxGeometry x="160" y="380" width="120" height="50" as="geometry" />
        </mxCell>
        <mxCell id="byIc-fCQGl1gXg94sGnV-30" style="edgeStyle=orthogonalEdgeStyle;rounded=0;orthogonalLoop=1;jettySize=auto;html=1;exitX=0.5;exitY=1;exitDx=0;exitDy=0;entryX=0.5;entryY=0;entryDx=0;entryDy=0;" edge="1" parent="WIyWlLk6GJQsqaUBKTNV-1" source="byIc-fCQGl1gXg94sGnV-14" target="byIc-fCQGl1gXg94sGnV-28">
          <mxGeometry relative="1" as="geometry">
            <Array as="points">
              <mxPoint x="220" y="570" />
              <mxPoint x="220" y="570" />
            </Array>
          </mxGeometry>
        </mxCell>
        <mxCell id="byIc-fCQGl1gXg94sGnV-32" style="edgeStyle=orthogonalEdgeStyle;rounded=0;orthogonalLoop=1;jettySize=auto;html=1;exitX=1;exitY=0.5;exitDx=0;exitDy=0;entryX=0;entryY=0.5;entryDx=0;entryDy=0;" edge="1" parent="WIyWlLk6GJQsqaUBKTNV-1" source="byIc-fCQGl1gXg94sGnV-14" target="byIc-fCQGl1gXg94sGnV-34">
          <mxGeometry relative="1" as="geometry">
            <mxPoint x="360" y="495" as="targetPoint" />
          </mxGeometry>
        </mxCell>
        <mxCell id="byIc-fCQGl1gXg94sGnV-14" value="System asks&lt;br&gt;if customer&lt;br&gt;has account" style="rhombus;whiteSpace=wrap;html=1;shadow=0;fontFamily=Helvetica;fontSize=12;align=center;strokeWidth=1;spacing=6;spacingTop=-4;" vertex="1" parent="WIyWlLk6GJQsqaUBKTNV-1">
          <mxGeometry x="360" y="420" width="146" height="90" as="geometry" />
        </mxCell>
        <mxCell id="byIc-fCQGl1gXg94sGnV-21" value="Yes" style="text;html=1;align=center;verticalAlign=middle;resizable=0;points=[];autosize=1;strokeColor=none;" vertex="1" parent="WIyWlLk6GJQsqaUBKTNV-1">
          <mxGeometry x="290" y="230" width="40" height="20" as="geometry" />
        </mxCell>
        <mxCell id="byIc-fCQGl1gXg94sGnV-22" style="edgeStyle=orthogonalEdgeStyle;rounded=0;orthogonalLoop=1;jettySize=auto;html=1;exitX=0.5;exitY=1;exitDx=0;exitDy=0;" edge="1" parent="WIyWlLk6GJQsqaUBKTNV-1" source="byIc-fCQGl1gXg94sGnV-6" target="byIc-fCQGl1gXg94sGnV-6">
          <mxGeometry relative="1" as="geometry" />
        </mxCell>
        <mxCell id="byIc-fCQGl1gXg94sGnV-24" value="No" style="text;html=1;align=center;verticalAlign=middle;resizable=0;points=[];autosize=1;strokeColor=none;" vertex="1" parent="WIyWlLk6GJQsqaUBKTNV-1">
          <mxGeometry x="310" y="260" width="30" height="20" as="geometry" />
        </mxCell>
        <mxCell id="byIc-fCQGl1gXg94sGnV-25" value="Yes" style="text;html=1;align=center;verticalAlign=middle;resizable=0;points=[];autosize=1;strokeColor=none;" vertex="1" parent="WIyWlLk6GJQsqaUBKTNV-1">
          <mxGeometry x="300" y="380" width="40" height="20" as="geometry" />
        </mxCell>
        <mxCell id="byIc-fCQGl1gXg94sGnV-44" value="" style="edgeStyle=orthogonalEdgeStyle;rounded=0;orthogonalLoop=1;jettySize=auto;html=1;entryX=0.5;entryY=0;entryDx=0;entryDy=0;" edge="1" parent="WIyWlLk6GJQsqaUBKTNV-1" source="byIc-fCQGl1gXg94sGnV-28">
          <mxGeometry relative="1" as="geometry">
            <mxPoint x="220" y="660" as="targetPoint" />
          </mxGeometry>
        </mxCell>
        <mxCell id="byIc-fCQGl1gXg94sGnV-28" value="Customer logs in" style="rounded=1;whiteSpace=wrap;html=1;fontSize=12;glass=0;strokeWidth=1;shadow=0;" vertex="1" parent="WIyWlLk6GJQsqaUBKTNV-1">
          <mxGeometry x="160" y="585" width="120" height="50" as="geometry" />
        </mxCell>
        <mxCell id="byIc-fCQGl1gXg94sGnV-31" value="Yes" style="text;html=1;align=center;verticalAlign=middle;resizable=0;points=[];autosize=1;strokeColor=none;" vertex="1" parent="WIyWlLk6GJQsqaUBKTNV-1">
          <mxGeometry x="280" y="490" width="40" height="20" as="geometry" />
        </mxCell>
        <mxCell id="byIc-fCQGl1gXg94sGnV-54" style="edgeStyle=orthogonalEdgeStyle;rounded=0;orthogonalLoop=1;jettySize=auto;html=1;exitX=0.5;exitY=1;exitDx=0;exitDy=0;entryX=0.5;entryY=0;entryDx=0;entryDy=0;" edge="1" parent="WIyWlLk6GJQsqaUBKTNV-1" source="byIc-fCQGl1gXg94sGnV-34" target="byIc-fCQGl1gXg94sGnV-53">
          <mxGeometry relative="1" as="geometry" />
        </mxCell>
        <mxCell id="byIc-fCQGl1gXg94sGnV-69" style="edgeStyle=orthogonalEdgeStyle;rounded=0;orthogonalLoop=1;jettySize=auto;html=1;exitX=1;exitY=0.5;exitDx=0;exitDy=0;entryX=1;entryY=0.75;entryDx=0;entryDy=0;" edge="1" parent="WIyWlLk6GJQsqaUBKTNV-1" source="byIc-fCQGl1gXg94sGnV-34" target="byIc-fCQGl1gXg94sGnV-57">
          <mxGeometry relative="1" as="geometry" />
        </mxCell>
        <mxCell id="byIc-fCQGl1gXg94sGnV-34" value="System asks&lt;br&gt;if customer wants to create an account" style="rhombus;whiteSpace=wrap;html=1;shadow=0;fontFamily=Helvetica;fontSize=12;align=center;strokeWidth=1;spacing=6;spacingTop=-4;" vertex="1" parent="WIyWlLk6GJQsqaUBKTNV-1">
          <mxGeometry x="550" y="420" width="146" height="90" as="geometry" />
        </mxCell>
        <mxCell id="byIc-fCQGl1gXg94sGnV-61" style="edgeStyle=orthogonalEdgeStyle;rounded=0;orthogonalLoop=1;jettySize=auto;html=1;exitX=1;exitY=0.75;exitDx=0;exitDy=0;" edge="1" parent="WIyWlLk6GJQsqaUBKTNV-1">
          <mxGeometry relative="1" as="geometry">
            <mxPoint x="280" y="698" as="targetPoint" />
            <mxPoint x="280" y="697.5" as="sourcePoint" />
          </mxGeometry>
        </mxCell>
        <mxCell id="byIc-fCQGl1gXg94sGnV-65" style="edgeStyle=orthogonalEdgeStyle;rounded=0;orthogonalLoop=1;jettySize=auto;html=1;exitX=1;exitY=0.5;exitDx=0;exitDy=0;" edge="1" parent="WIyWlLk6GJQsqaUBKTNV-1" source="byIc-fCQGl1gXg94sGnV-47" target="byIc-fCQGl1gXg94sGnV-64">
          <mxGeometry relative="1" as="geometry" />
        </mxCell>
        <mxCell id="byIc-fCQGl1gXg94sGnV-47" value="Customer confirms details" style="rounded=1;whiteSpace=wrap;html=1;" vertex="1" parent="WIyWlLk6GJQsqaUBKTNV-1">
          <mxGeometry x="160" y="800" width="120" height="50" as="geometry" />
        </mxCell>
        <mxCell id="byIc-fCQGl1gXg94sGnV-71" style="edgeStyle=orthogonalEdgeStyle;rounded=0;orthogonalLoop=1;jettySize=auto;html=1;exitX=0.5;exitY=1;exitDx=0;exitDy=0;entryX=0.98;entryY=0.42;entryDx=0;entryDy=0;entryPerimeter=0;" edge="1" parent="WIyWlLk6GJQsqaUBKTNV-1" source="byIc-fCQGl1gXg94sGnV-53" target="byIc-fCQGl1gXg94sGnV-70">
          <mxGeometry relative="1" as="geometry">
            <Array as="points">
              <mxPoint x="443" y="681" />
            </Array>
          </mxGeometry>
        </mxCell>
        <mxCell id="byIc-fCQGl1gXg94sGnV-53" value="Customer creates an account" style="rounded=1;whiteSpace=wrap;html=1;fontSize=12;glass=0;strokeWidth=1;shadow=0;" vertex="1" parent="WIyWlLk6GJQsqaUBKTNV-1">
          <mxGeometry x="383" y="585" width="120" height="50" as="geometry" />
        </mxCell>
        <mxCell id="byIc-fCQGl1gXg94sGnV-56" value="Yes" style="text;html=1;align=center;verticalAlign=middle;resizable=0;points=[];autosize=1;strokeColor=none;" vertex="1" parent="WIyWlLk6GJQsqaUBKTNV-1">
          <mxGeometry x="400" y="550" width="40" height="20" as="geometry" />
        </mxCell>
        <mxCell id="byIc-fCQGl1gXg94sGnV-72" style="edgeStyle=orthogonalEdgeStyle;rounded=0;orthogonalLoop=1;jettySize=auto;html=1;exitX=0.5;exitY=1;exitDx=0;exitDy=0;entryX=1;entryY=0.75;entryDx=0;entryDy=0;" edge="1" parent="WIyWlLk6GJQsqaUBKTNV-1" source="byIc-fCQGl1gXg94sGnV-57" target="byIc-fCQGl1gXg94sGnV-70">
          <mxGeometry relative="1" as="geometry">
            <Array as="points">
              <mxPoint x="590" y="695" />
            </Array>
          </mxGeometry>
        </mxCell>
        <mxCell id="byIc-fCQGl1gXg94sGnV-57" value="Customer proceeds as guest" style="rounded=1;whiteSpace=wrap;html=1;" vertex="1" parent="WIyWlLk6GJQsqaUBKTNV-1">
          <mxGeometry x="530" y="585" width="120" height="50" as="geometry" />
        </mxCell>
        <mxCell id="byIc-fCQGl1gXg94sGnV-59" value="No" style="text;html=1;align=center;verticalAlign=middle;resizable=0;points=[];autosize=1;strokeColor=none;" vertex="1" parent="WIyWlLk6GJQsqaUBKTNV-1">
          <mxGeometry x="690" y="540" width="30" height="20" as="geometry" />
        </mxCell>
        <mxCell id="byIc-fCQGl1gXg94sGnV-66" style="edgeStyle=orthogonalEdgeStyle;rounded=0;orthogonalLoop=1;jettySize=auto;html=1;entryX=0.5;entryY=0;entryDx=0;entryDy=0;" edge="1" parent="WIyWlLk6GJQsqaUBKTNV-1" source="byIc-fCQGl1gXg94sGnV-64" target="byIc-fCQGl1gXg94sGnV-5">
          <mxGeometry relative="1" as="geometry">
            <Array as="points">
              <mxPoint x="420" y="870" />
              <mxPoint x="220" y="870" />
            </Array>
          </mxGeometry>
        </mxCell>
        <mxCell id="byIc-fCQGl1gXg94sGnV-64" value="&lt;meta charset=&quot;utf-8&quot;&gt;&lt;span style=&quot;color: rgb(0, 0, 0); font-family: helvetica; font-size: 12px; font-style: normal; font-weight: 400; letter-spacing: normal; text-align: center; text-indent: 0px; text-transform: none; word-spacing: 0px; background-color: rgb(248, 249, 250); display: inline; float: none;&quot;&gt;System sends conf email&lt;/span&gt;" style="rounded=1;whiteSpace=wrap;html=1;" vertex="1" parent="WIyWlLk6GJQsqaUBKTNV-1">
          <mxGeometry x="360" y="800" width="120" height="50" as="geometry" />
        </mxCell>
        <mxCell id="byIc-fCQGl1gXg94sGnV-68" value="No" style="text;html=1;align=center;verticalAlign=middle;resizable=0;points=[];autosize=1;strokeColor=none;" vertex="1" parent="WIyWlLk6GJQsqaUBKTNV-1">
          <mxGeometry x="510" y="440" width="30" height="20" as="geometry" />
        </mxCell>
        <mxCell id="byIc-fCQGl1gXg94sGnV-74" style="edgeStyle=orthogonalEdgeStyle;rounded=0;orthogonalLoop=1;jettySize=auto;html=1;exitX=0.5;exitY=1;exitDx=0;exitDy=0;entryX=0.5;entryY=0;entryDx=0;entryDy=0;" edge="1" parent="WIyWlLk6GJQsqaUBKTNV-1" source="byIc-fCQGl1gXg94sGnV-70" target="byIc-fCQGl1gXg94sGnV-73">
          <mxGeometry relative="1" as="geometry" />
        </mxCell>
        <mxCell id="byIc-fCQGl1gXg94sGnV-70" value="&lt;span style=&quot;color: rgb(0 , 0 , 0) ; font-family: &amp;#34;helvetica&amp;#34; ; font-size: 12px ; font-style: normal ; font-weight: 400 ; letter-spacing: normal ; text-align: center ; text-indent: 0px ; text-transform: none ; word-spacing: 0px ; background-color: rgb(248 , 249 , 250) ; display: inline ; float: none&quot;&gt;Customer inputs&lt;br&gt;personal information&lt;/span&gt;" style="shape=parallelogram;perimeter=parallelogramPerimeter;whiteSpace=wrap;html=1;fixedSize=1;" vertex="1" parent="WIyWlLk6GJQsqaUBKTNV-1">
          <mxGeometry x="145" y="660" width="150" height="50" as="geometry" />
        </mxCell>
        <mxCell id="byIc-fCQGl1gXg94sGnV-75" style="edgeStyle=orthogonalEdgeStyle;rounded=0;orthogonalLoop=1;jettySize=auto;html=1;exitX=0.5;exitY=1;exitDx=0;exitDy=0;entryX=0.5;entryY=0;entryDx=0;entryDy=0;" edge="1" parent="WIyWlLk6GJQsqaUBKTNV-1" source="byIc-fCQGl1gXg94sGnV-73" target="byIc-fCQGl1gXg94sGnV-47">
          <mxGeometry relative="1" as="geometry" />
        </mxCell>
        <mxCell id="byIc-fCQGl1gXg94sGnV-73" value="Customer inputs&lt;br&gt;payment" style="shape=parallelogram;perimeter=parallelogramPerimeter;whiteSpace=wrap;html=1;fixedSize=1;" vertex="1" parent="WIyWlLk6GJQsqaUBKTNV-1">
          <mxGeometry x="145" y="730" width="150" height="50" as="geometry" />
        </mxCell>
      </root>
    </mxGraphModel>
  </diagram>
</mxfile>
